<?xml version="1.0" encoding="UTF-8" standalone="no"?>
<svg
   xmlns:dc="http://purl.org/dc/elements/1.1/"
   xmlns:cc="http://creativecommons.org/ns#"
   xmlns:rdf="http://www.w3.org/1999/02/22-rdf-syntax-ns#"
   xmlns:svg="http://www.w3.org/2000/svg"
   xmlns="http://www.w3.org/2000/svg"
   xmlns:xlink="http://www.w3.org/1999/xlink"
   id="svg1086"
   version="1.1"
   height="139.4621"
   width="319.76385">
  <metadata
     id="metadata1090">
    <rdf:RDF>
      <cc:Work
         rdf:about="">
        <dc:format>image/svg+xml</dc:format>
        <dc:type
           rdf:resource="http://purl.org/dc/dcmitype/StillImage" />
        <dc:title>Triceratops</dc:title>
      </cc:Work>
    </rdf:RDF>
  </metadata>
  <title
     id="title997">Triceratops</title>
  <defs
     id="defs1004">
    <linearGradient
       id="svg_1">
      <stop
         id="stop999"
         stop-color="#7f003f"
         offset="0" />
      <stop
         id="stop1001"
         stop-color="#aa56ff"
         stop-opacity="0.996094"
         offset="1" />
    </linearGradient>
  </defs>
  <g
     transform="translate(-111.59353,16.059437)"
     id="g1084">
    <title
       id="title1006">Layer 1 copy</title>
    <g
       id="g1658">
      <g
         transform="matrix(5.0271694,0,0,5.0271694,-1005.1708,-216.14463)"
         id="g8885">
        <g
           transform="matrix(1.136,0,0,1.136,-34.537108,-7.2993378)"
           id="g9078">
          <g
             transform="translate(98.199922,-93.975277)"
             id="g4378">
            <g
               transform="matrix(0.25,0,0,0.25,116.81205,110.73516)"
               id="g9212">
              <g
                 transform="matrix(0.90999999,0,0,0.90999999,-79.978494,98.805721)"
                 id="g9020">
                <path
                   id="svg_81"
                   stroke-miterlimit="10"
                   d="M 166.00017,82.186994 C 155.97949,77.388594 148.97343,68.691454 144.37812,57.857454 127.2115,17.385079 161.49446,9.005143 180.13201,0.743001 V 93.099"
                   style="clip-rule:evenodd;fill-rule:evenodd;stroke:#000000;stroke-width:0;stroke-linecap:square;stroke-miterlimit:10" />
                <path
                   style="clip-rule:evenodd;fill-rule:evenodd;stroke:#000000;stroke-width:0;stroke-linecap:square;stroke-miterlimit:10"
                   id="svg_82"
                   stroke-miterlimit="10"
                   d="M 180.132,93.098999 V 9.519 c 0,-3.36 2.056,-14.958 4.594,-6.479 1.31199,4.38 -2.86299,12.313 -3.21601,17.001 -0.56799,7.558001 0.903,13.752998 4.36501,20.675999 5.62801,11.253002 12.761,7.188999 24.12199,6.893002 19.14801,-0.5 40.57311,4.612222 58.94175,-0.665463 -5.61036,3.770979 -19.1175,6.479929 -25.9965,7.523928 6.33431,0.652569 10.86701,0.198221 15.47269,0.359183 2.21818,0.07752 4.45292,-0.07798 7.17156,0.173178 -4.66904,2.344952 -8.67052,2.842352 -11.85529,3.24257 -4.7075,0.591575 -8.86082,0.397012 -16.3352,0.972603 -13.607,1.048 -26.394,1.497002 -39.806,4.476002 1.81601,4.118996 5.628,11.786995 10.109,13.783997 6.232,2.778 13.889,-2.401001 19.758,0 -10.11999,5.963005 -9.832,6.085999 -12.40601,15.623001 -1.68899,6.258003 -4.99198,10.414 -10.56799,14.244 1.428,-2.496 1.26801,-4.604 1.37799,-7.352002 -3.03898,1.496002 -8.84298,6.771002 -12.86499,2.757002 -3.087,-3.080999 -9.71,-9.936003 -12.864,-9.649" />
                <g
                   id="g8994">
                  <path
                     d="m 190.699,60.015999 c -8.38099,-1.850998 -32.78599,4.234001 -29.86599,17.459999 1.655,7.499001 18.406,12.738998 24.35299,17.690002 5.45002,4.537003 12.364,13.026 18.83802,4.364998 -11.36701,-8.362 -20.68901,-15.481995 -32.62203,-21.595001 0.37902,-0.299995 2.23702,-0.034 2.75701,0 -0.161,-0.563995 -0.46801,-1.023994 -0.92,-1.377998 2.334,2.773003 5.752,2.934998 7.353,0 1.07501,12.244003 31.122,16.801003 24.813,29.406001 3.799,-2.645 16.118,-18.750003 5.51401,-17.919002 0.96798,0.013 2.29399,-0.265999 3.67599,0 -0.015,-0.973 -0.343,-1.384995 -1.379,-0.919998 0.253,-0.378998 1.39299,0.119003 1.379,-0.917999 -3.473,-0.428001 -5.18899,-3.417999 -5.974,-6.891998 2,9.014999 9.935,6.446999 1.37799,-0.918999 C 204.56301,73.717003 193.982,66.622002 196.215,57.720001 c -1.83499,0.088 -3.616,0.803997 -5.054,1.837997 2.056,2.500999 2.52501,4.054001 2.29699,4.594002 0.22101,-2.785 -1.53498,-2.478001 -2.75898,-4.136002"
                     stroke-miterlimit="10"
                     id="svg_83"
                     style="clip-rule:evenodd;fill:#f1a340;fill-opacity:1;fill-rule:evenodd;stroke:#000000;stroke-width:0;stroke-linecap:square;stroke-miterlimit:10" />
                  <path
                     d="m 198.97,56.799 c 21.774,-2.178001 50.42173,0.388538 69.96874,-9.854462 -18.33101,6.329998 -47.90773,1.583462 -67.39875,1.583462 -11.69899,0 -30.37199,8.007 -41.166,2.297001 0.88401,0.256001 1.815,0.709 2.75601,0.918999 -0.307,-0.306999 -0.612,-0.612999 -0.919,-0.918999 8.45399,0.938999 18.39,-0.975002 27.569,-1.838001 -8.00301,-13.736 -10.493,-24.668999 -6.663,-39.974999 3.876,-15.486 -18.51899,-4.923 -25.73001,0.23 -14.93699,10.670001 -28.29399,32.689 -16.31199,50.772 3.655,5.514999 6.457,6.397003 12.405,6.432999 4.124,0.025 9.307,-5.152 8.73001,3.675003 C 167.23,60.853002 189.153,56.318002 198.97,56.799001"
                     stroke-miterlimit="10"
                     id="svg_84"
                     style="clip-rule:evenodd;fill:#f1a340;fill-opacity:1;fill-rule:evenodd;stroke:#000000;stroke-width:0;stroke-linecap:square;stroke-miterlimit:10" />
                </g>
                <path
                   style="clip-rule:evenodd;fill-rule:evenodd;stroke:#000000;stroke-width:0;stroke-linecap:square;stroke-miterlimit:10"
                   id="svg_85"
                   stroke-miterlimit="10"
                   d="m 184.726,63.692001 c 1.85299,-2.982002 7.126,-0.035 7.352,2.756996 0.61299,0 1.226,0 1.83901,0 -0.083,-0.113998 -1.68901,1.291 -1.83901,1.378006 1.153,-0.188004 1.81,-0.438004 2.758,-0.918007 -2.00099,2.138 -4.009,2.146004 -6.89301,1.838005 C 188.83,68.430999 190.771,66.917999 192.078,66.449996 189.076,67.024001 186.62601,66.109 184.726,63.692" />
                <path
                   style="clip-rule:evenodd;fill-rule:evenodd;stroke:#000000;stroke-width:0;stroke-linecap:square;stroke-miterlimit:10"
                   id="svg_86"
                   stroke-miterlimit="10"
                   d="M 147.508,63.692001 C 127.149,44.915001 144.996,16.028999 164.96799,6.716 142.944,15.89 131.48399,44.306999 147.508,63.692001" />
                <path
                   style="clip-rule:evenodd;fill:#f1a340;fill-opacity:1;fill-rule:evenodd;stroke:#000000;stroke-width:0;stroke-linecap:square;stroke-miterlimit:10"
                   id="svg_93"
                   stroke-miterlimit="10"
                   d="m 155.778,65.988998 c 7.52699,-6.168999 5.006,7.120003 3.67599,9.649002 C 159.974,69.637001 154.2,67.182998 153.942,74.260002 152.591,68.031998 144.543,68.433998 140.61501,62.542999 136.569,56.472999 135.116,46.113998 136.481,42.097 c -0.259,9.731998 5.898,30.834 19.297,23.891998" />
                <path
                   style="clip-rule:evenodd;fill-rule:evenodd;stroke:#000000;stroke-width:0;stroke-linecap:square;stroke-miterlimit:10"
                   id="svg_94"
                   stroke-miterlimit="10"
                   d="m 257.323,48.987999 c -3.814,1.379002 -7.90599,0.955002 -11.946,1.838001 3.817,-1.441002 7.94,-1.223 11.946,-1.838001" />
                <path
                   style="clip-rule:evenodd;fill-rule:evenodd;stroke:#000000;stroke-width:0;stroke-linecap:square;stroke-miterlimit:10"
                   id="svg_95"
                   stroke-miterlimit="10"
                   d="m 217.80901,51.745998 c 5.667,0 11.334,0 17.001,0 -11.266,0.489002 -21.89599,0.104 -32.62301,2.297001 0.153,-0.459 0,-0.612 -0.45999,-0.459 4.85598,-0.563 12.10399,-2.398998 16.082,-1.838001" />
                <path
                   style="clip-rule:evenodd;fill:#f1a340;fill-opacity:1;fill-rule:evenodd;stroke:#000000;stroke-width:0;stroke-linecap:square;stroke-miterlimit:10"
                   id="svg_97"
                   stroke-miterlimit="10"
                   d="m 251.91724,54.89709 12.448,0.06581 1.22125,0.03793 c -6.86238,3.248257 -14.45735,3.058447 -20.63021,3.57303 -11.30667,0.942549 -21.87285,0.36396 -35.41728,2.360146 -2.52701,0.372997 -12.50999,3.268002 -13.09601,0.918999 -1.30299,-5.219002 4.11901,-4.48 8.041,-5.055 13.93601,-2.040001 6.63682,0.136349 46.78434,-1.905066" />
                <path
                   style="clip-rule:evenodd;fill:#007f7f;fill-rule:evenodd;stroke:#000000;stroke-width:0;stroke-linecap:square;stroke-miterlimit:10"
                   id="svg_99"
                   stroke-miterlimit="10"
                   d="m 193.916,57.719002 c -2.414,1.343998 -4.981,1.792999 -7.813,1.377998 2.53801,-0.745998 5.171,-1.177002 7.813,-1.377998" />
                <path
                   style="clip-rule:evenodd;fill-rule:evenodd;stroke:#000000;stroke-width:0;stroke-linecap:square;stroke-miterlimit:10"
                   id="svg_101"
                   stroke-miterlimit="10"
                   d="m 190.699,61.854 c 0.83501,0.951 1.543,1.679001 2.29702,2.757 -2.31002,-2.082001 -5.59502,-3.643002 -8.72902,-2.757 2.05301,-1.473 4.15201,-0.872002 6.432,0" />
                <path
                   style="clip-rule:evenodd;fill:#ffffff;fill-rule:evenodd;stroke:#000000;stroke-width:0;stroke-linecap:square;stroke-miterlimit:10"
                   id="svg_102"
                   stroke-miterlimit="10"
                   d="m 187.483,63.231998 c -0.899,0.235001 -0.481,2.434002 -2.298,-0.459 0.619,0.298 1.612,0.639 2.298,0.459" />
                <path
                   style="clip-rule:evenodd;fill-rule:evenodd;stroke:#000000;stroke-width:0;stroke-linecap:square;stroke-miterlimit:10"
                   id="svg_103"
                   stroke-miterlimit="10"
                   d="m 167.26601,61.395 c -0.381,1.896 0.125,2.977001 -1.378,4.593998 0.26699,-1.667 2.001,-5.660999 1.378,-4.593998" />
                <path
                   style="clip-rule:evenodd;fill-rule:evenodd;stroke:#000000;stroke-width:0;stroke-linecap:square;stroke-miterlimit:10"
                   id="svg_104"
                   stroke-miterlimit="10"
                   d="m 173.23801,64.151001 c -0.817,0.385002 -1.316,0.973 -1.83699,1.378998 0.66098,-1.195999 2.56498,-1.721001 1.83699,-1.378998" />
                <path
                   style="clip-rule:evenodd;fill-rule:evenodd;stroke:#000000;stroke-width:0;stroke-linecap:square;stroke-miterlimit:10"
                   id="svg_105"
                   stroke-miterlimit="10"
                   d="m 185.186,65.988998 c 1.28499,3.052002 -0.58799,-0.263 -2.298,-0.918999 -3.17599,-1.217999 -4.869,-2.827 -8.729,-2.756001 3.871,-0.862 8.63301,0.945999 11.027,3.674999" />
                <path
                   style="clip-rule:evenodd;fill-rule:evenodd;stroke:#000000;stroke-width:0;stroke-linecap:square;stroke-miterlimit:10"
                   id="svg_106"
                   stroke-miterlimit="10"
                   d="m 164.968,64.611 c -0.658,1.542999 -1.51201,3.670998 -2.297,4.595001 1.156,-2.773003 1.614,-4.672005 1.378,-7.352001 1.02,0.616001 0.774,1.493999 0.919,2.757" />
                <path
                   style="clip-rule:evenodd;fill:#ffffff;fill-rule:evenodd;stroke:#000000;stroke-width:0;stroke-linecap:square;stroke-miterlimit:10"
                   id="svg_115"
                   stroke-miterlimit="10"
                   d="m 225.619,77.475998 c -2.18001,0.998001 -11.68001,6.575005 -12.63501,2.757004 C 212.099,76.696999 224.19701,77.195 225.619,77.475998" />
                <path
                   style="clip-rule:evenodd;fill:#b2b2b2;fill-rule:evenodd;stroke:#000000;stroke-width:0;stroke-linecap:square;stroke-miterlimit:10"
                   id="svg_116"
                   stroke-miterlimit="10"
                   d="m 181.05,80.692001 c -1.503,-0.479004 -2.724,-0.598 -4.13501,-1.377998 2.875,-0.999001 2.55802,0.557999 4.13501,1.377998" />
                <path
                   style="clip-rule:evenodd;fill:#b2b2b2;fill-rule:evenodd;stroke:#000000;stroke-width:0;stroke-linecap:square;stroke-miterlimit:10"
                   id="svg_117"
                   stroke-miterlimit="10"
                   d="m 215.97099,83.908997 c -0.80501,-0.601997 -1.446,0.332001 -1.839,-1.378998 4.138,-1.817001 8.528,-4.005997 12.86599,-5.054001 -3.47299,2.491005 -7.27298,4.408005 -11.02699,6.432999" />
                <path
                   style="clip-rule:evenodd;fill-rule:evenodd;stroke:#000000;stroke-width:0;stroke-linecap:square;stroke-miterlimit:10"
                   id="svg_118"
                   stroke-miterlimit="10"
                   d="m 207.7,81.152 c 0.822,1.792 1.03199,3.586998 2.29699,5.054001 C 208.05701,83.783996 206.608,81.595001 207.7,81.152" />
                <path
                   style="clip-rule:evenodd;fill-rule:evenodd;stroke:#000000;stroke-width:0;stroke-linecap:square;stroke-miterlimit:10"
                   id="svg_119"
                   stroke-miterlimit="10"
                   d="m 213.674,84.367996 c -1.079,-1.255997 -2.05201,-1.445 -2.299,-3.215996 0.62801,1.474998 1.233,1.959999 2.299,3.215996" />
                <path
                   style="clip-rule:evenodd;fill-rule:evenodd;stroke:#000000;stroke-width:0;stroke-linecap:square;stroke-miterlimit:10"
                   id="svg_124"
                   stroke-miterlimit="10"
                   d="m 209.078,89.421997 c 0.46401,0.572006 -0.093,1.987 0.45999,2.756004 0.25,-9.99e-4 1.38102,-1.840004 1.37902,-1.836998 -0.021,0.032 -1.75801,4.532997 -2.29801,1.378998 -0.692,-4.041 1.012,-2.257004 0.459,-2.298004" />
              </g>
              <g
                 id="g9151">
                <text
                   xml:space="preserve"
                   style="font-style:normal;font-variant:normal;font-weight:bold;font-stretch:normal;font-size:37.33333206px;line-height:1.25;font-family:Arial;-inkscape-font-specification:'Arial Bold';letter-spacing:0px;word-spacing:0px;fill:#000000;fill-opacity:1;stroke:none"
                   x="86.842598"
                   y="132.27519"
                   id="text2414"><tspan
                     id="tspan2412"
                     x="86.842598"
                     y="132.27519"
                     style="font-style:normal;font-variant:normal;font-weight:bold;font-stretch:normal;font-family:Ubuntu;-inkscape-font-specification:'Ubuntu Bold'">rib</tspan></text>
                <g
                   id="g4365"
                   transform="matrix(0.25,0,0,0.25,86.979576,109.9651)">
                  <path
                     d="m 328.06222,14.322355 a 70,40 0 0 1 -70,40 70,40 0 0 1 -70,-40 70,40 0 0 1 70,-40 70,40 0 0 1 70,40 z"
                     style="fill:#f1a340;fill-opacity:1;stroke:#de9126;stroke-width:0;stroke-miterlimit:4;stroke-dasharray:none;stroke-opacity:1"
                     id="path4289" />
                  <use
                     height="100%"
                     width="100%"
                     transform="matrix(0.6667,0,0,0.6667,86.012137,54.773642)"
                     id="use4835"
                     xlink:href="#path4289"
                     y="0"
                     x="0" />
                </g>
                <text
                   xml:space="preserve"
                   style="font-style:normal;font-variant:normal;font-weight:bold;font-stretch:normal;font-size:37.33333206px;line-height:1.25;font-family:Arial;-inkscape-font-specification:'Arial Bold';letter-spacing:0px;word-spacing:0px;fill:#000000;fill-opacity:1;stroke:none"
                   x="149.02956"
                   y="132.27519"
                   id="text4369"><tspan
                     id="tspan4367"
                     x="149.02956"
                     y="132.27519">  <tspan
   style="font-style:normal;font-variant:normal;font-weight:bold;font-stretch:normal;font-family:Ubuntu;-inkscape-font-specification:'Ubuntu Bold'"
   id="tspan8929">tricer</tspan></tspan></text>
              </g>
            </g>
          </g>
        </g>
      </g>
    </g>
  </g>
</svg>
