<?xml version="1.0" encoding="UTF-8" standalone="no"?>
<!DOCTYPE svg PUBLIC "-//W3C//DTD SVG 1.1//EN"
 "http://www.w3.org/Graphics/SVG/1.1/DTD/svg11.dtd">
<!-- Generated by graphviz version 2.38.0 (20140413.2041)
 -->
<!-- Title: snakemake_dag Pages: 1 -->
<svg width="1761pt" height="764pt"
 viewBox="0.00 0.00 1761.00 764.00" xmlns="http://www.w3.org/2000/svg" xmlns:xlink="http://www.w3.org/1999/xlink">
<g id="graph0" class="graph" transform="scale(1 1) rotate(0) translate(4 760)">
<title>snakemake_dag</title>
<polygon fill="white" stroke="none" points="-4,4 -4,-760 1757,-760 1757,4 -4,4"/>
<!-- 0 -->
<g id="node1" class="node"><title>0</title>
<path fill="none" stroke="#5673d8" stroke-width="2" d="M884,-36C884,-36 854,-36 854,-36 848,-36 842,-30 842,-24 842,-24 842,-12 842,-12 842,-6 848,-0 854,-0 854,-0 884,-0 884,-0 890,-0 896,-6 896,-12 896,-12 896,-24 896,-24 896,-30 890,-36 884,-36"/>
<text text-anchor="middle" x="869" y="-15.5" font-family="sans" font-size="10.00">all</text>
</g>
<!-- 1 -->
<g id="node2" class="node"><title>1</title>
<path fill="none" stroke="#59d856" stroke-width="2" d="M1620,-324C1620,-324 1404,-324 1404,-324 1398,-324 1392,-318 1392,-312 1392,-312 1392,-300 1392,-300 1392,-294 1398,-288 1404,-288 1404,-288 1620,-288 1620,-288 1626,-288 1632,-294 1632,-300 1632,-300 1632,-312 1632,-312 1632,-318 1626,-324 1620,-324"/>
<text text-anchor="middle" x="1512" y="-303.5" font-family="sans" font-size="10.00">create_uniq_bigwig_from_uniq_bedgraph_raw</text>
</g>
<!-- 1&#45;&gt;0 -->
<g id="edge1" class="edge"><title>1&#45;&gt;0</title>
<path fill="none" stroke="grey" stroke-width="2" d="M1528.94,-287.937C1537.45,-278.242 1546.99,-265.389 1552,-252 1580.07,-176.954 1616.45,-130.776 1562,-72 1517.19,-23.6359 1043.79,-19.2223 906.264,-18.9658"/>
<polygon fill="grey" stroke="grey" stroke-width="2" points="906.218,-15.4659 896.213,-18.9536 906.209,-22.4659 906.218,-15.4659"/>
</g>
<!-- 25 -->
<g id="node26" class="node"><title>25</title>
<path fill="none" stroke="#56d892" stroke-width="2" d="M1541,-108C1541,-108 1445,-108 1445,-108 1439,-108 1433,-102 1433,-96 1433,-96 1433,-84 1433,-84 1433,-78 1439,-72 1445,-72 1445,-72 1541,-72 1541,-72 1547,-72 1553,-78 1553,-84 1553,-84 1553,-96 1553,-96 1553,-102 1547,-108 1541,-108"/>
<text text-anchor="middle" x="1493" y="-87.5" font-family="sans" font-size="10.00">export_cds_coverage</text>
</g>
<!-- 1&#45;&gt;25 -->
<g id="edge56" class="edge"><title>1&#45;&gt;25</title>
<path fill="none" stroke="grey" stroke-width="2" d="M1521.95,-287.978C1527.27,-277.888 1533.27,-264.638 1536,-252 1546.35,-204.075 1524.15,-149.047 1507.96,-117.322"/>
<polygon fill="grey" stroke="grey" stroke-width="2" points="1510.94,-115.466 1503.18,-108.258 1504.75,-118.735 1510.94,-115.466"/>
</g>
<!-- 31 -->
<g id="node32" class="node"><title>31</title>
<path fill="none" stroke="#56d8c9" stroke-width="2" d="M1314.5,-252C1314.5,-252 1235.5,-252 1235.5,-252 1229.5,-252 1223.5,-246 1223.5,-240 1223.5,-240 1223.5,-228 1223.5,-228 1223.5,-222 1229.5,-216 1235.5,-216 1235.5,-216 1314.5,-216 1314.5,-216 1320.5,-216 1326.5,-222 1326.5,-228 1326.5,-228 1326.5,-240 1326.5,-240 1326.5,-246 1320.5,-252 1314.5,-252"/>
<text text-anchor="middle" x="1275" y="-231.5" font-family="sans" font-size="10.00">export_metagene</text>
</g>
<!-- 1&#45;&gt;31 -->
<g id="edge61" class="edge"><title>1&#45;&gt;31</title>
<path fill="none" stroke="grey" stroke-width="2" d="M1454.33,-287.966C1418.76,-277.46 1373.16,-263.992 1336.84,-253.266"/>
<polygon fill="grey" stroke="grey" stroke-width="2" points="1337.44,-249.794 1326.86,-250.318 1335.46,-256.507 1337.44,-249.794"/>
</g>
<!-- 2 -->
<g id="node3" class="node"><title>2</title>
<path fill="none" stroke="#d87556" stroke-width="2" d="M780,-684C780,-684 702,-684 702,-684 696,-684 690,-678 690,-672 690,-672 690,-660 690,-660 690,-654 696,-648 702,-648 702,-648 780,-648 780,-648 786,-648 792,-654 792,-660 792,-660 792,-672 792,-672 792,-678 786,-684 780,-684"/>
<text text-anchor="middle" x="741" y="-663.5" font-family="sans" font-size="10.00">perfom_trimming</text>
</g>
<!-- 2&#45;&gt;0 -->
<g id="edge2" class="edge"><title>2&#45;&gt;0</title>
<path fill="none" stroke="grey" stroke-width="2" d="M743.524,-647.921C750.952,-591.46 767.724,-407.621 692,-288 676.174,-263 650.178,-277.97 636,-252 612.999,-209.87 612.051,-185.599 636,-144 651.898,-116.385 670.747,-124.51 698,-108 723.627,-92.4746 728.694,-86.3453 755,-72 780.318,-58.1935 809.868,-44.5206 832.539,-34.5212"/>
<polygon fill="grey" stroke="grey" stroke-width="2" points="834.041,-37.6844 841.801,-30.4709 831.236,-31.2708 834.041,-37.6844"/>
</g>
<!-- 35 -->
<g id="node36" class="node"><title>35</title>
<path fill="none" stroke="#d8ac56" stroke-width="2" d="M621,-612C621,-612 583,-612 583,-612 577,-612 571,-606 571,-600 571,-600 571,-588 571,-588 571,-582 577,-576 583,-576 583,-576 621,-576 621,-576 627,-576 633,-582 633,-588 633,-588 633,-600 633,-600 633,-606 627,-612 621,-612"/>
<text text-anchor="middle" x="602" y="-591.5" font-family="sans" font-size="10.00">map_star</text>
</g>
<!-- 2&#45;&gt;35 -->
<g id="edge65" class="edge"><title>2&#45;&gt;35</title>
<path fill="none" stroke="grey" stroke-width="2" d="M706.997,-647.876C687.481,-638.048 662.862,-625.65 642.368,-615.329"/>
<polygon fill="grey" stroke="grey" stroke-width="2" points="643.781,-612.122 633.276,-610.75 640.633,-618.374 643.781,-612.122"/>
</g>
<!-- 3 -->
<g id="node4" class="node"><title>3</title>
<path fill="none" stroke="#c6d856" stroke-width="2" d="M412,-756C412,-756 322,-756 322,-756 316,-756 310,-750 310,-744 310,-744 310,-732 310,-732 310,-726 316,-720 322,-720 322,-720 412,-720 412,-720 418,-720 424,-726 424,-732 424,-732 424,-744 424,-744 424,-750 418,-756 412,-756"/>
<text text-anchor="middle" x="367" y="-741" font-family="sans" font-size="10.00">sra_to_fastq</text>
<text text-anchor="middle" x="367" y="-730" font-family="sans" font-size="10.00">sample: SRR014377</text>
</g>
<!-- 3&#45;&gt;0 -->
<g id="edge3" class="edge"><title>3&#45;&gt;0</title>
<path fill="none" stroke="grey" stroke-width="2" d="M356.468,-719.927C330.408,-677.036 265,-565.186 265,-523 265,-523 265,-523 265,-161 265,-117.633 269.731,-97.2349 305,-72 347.75,-41.412 712.468,-24.9491 831.556,-20.3524"/>
<polygon fill="grey" stroke="grey" stroke-width="2" points="831.792,-23.846 841.652,-19.9685 831.526,-16.8511 831.792,-23.846"/>
</g>
<!-- 18 -->
<g id="node19" class="node"><title>18</title>
<path fill="none" stroke="#d87556" stroke-width="2" d="M445,-684C445,-684 367,-684 367,-684 361,-684 355,-678 355,-672 355,-672 355,-660 355,-660 355,-654 361,-648 367,-648 367,-648 445,-648 445,-648 451,-648 457,-654 457,-660 457,-660 457,-672 457,-672 457,-678 451,-684 445,-684"/>
<text text-anchor="middle" x="406" y="-663.5" font-family="sans" font-size="10.00">perfom_trimming</text>
</g>
<!-- 3&#45;&gt;18 -->
<g id="edge49" class="edge"><title>3&#45;&gt;18</title>
<path fill="none" stroke="grey" stroke-width="2" d="M376.64,-719.697C381.127,-711.644 386.559,-701.894 391.524,-692.982"/>
<polygon fill="grey" stroke="grey" stroke-width="2" points="394.661,-694.544 396.47,-684.104 388.546,-691.137 394.661,-694.544"/>
</g>
<!-- 4 -->
<g id="node5" class="node"><title>4</title>
<path fill="none" stroke="#afd856" stroke-width="2" d="M1315,-180C1315,-180 1249,-180 1249,-180 1243,-180 1237,-174 1237,-168 1237,-168 1237,-156 1237,-156 1237,-150 1243,-144 1249,-144 1249,-144 1315,-144 1315,-144 1321,-144 1327,-150 1327,-156 1327,-156 1327,-168 1327,-168 1327,-174 1321,-180 1315,-180"/>
<text text-anchor="middle" x="1282" y="-159.5" font-family="sans" font-size="10.00">plot_metagene</text>
</g>
<!-- 4&#45;&gt;0 -->
<g id="edge4" class="edge"><title>4&#45;&gt;0</title>
<path fill="none" stroke="grey" stroke-width="2" d="M1275.65,-143.712C1267.08,-123.017 1249.74,-89.0264 1223,-72 1170.89,-38.8188 986.193,-25.2091 906.29,-20.7849"/>
<polygon fill="grey" stroke="grey" stroke-width="2" points="906.356,-17.2835 896.183,-20.2436 905.981,-24.2735 906.356,-17.2835"/>
</g>
<!-- 7 -->
<g id="node8" class="node"><title>7</title>
<path fill="none" stroke="#d8cb56" stroke-width="2" d="M939,-108C939,-108 909,-108 909,-108 903,-108 897,-102 897,-96 897,-96 897,-84 897,-84 897,-78 903,-72 909,-72 909,-72 939,-72 939,-72 945,-72 951,-78 951,-84 951,-84 951,-96 951,-96 951,-102 945,-108 939,-108"/>
<text text-anchor="middle" x="924" y="-87.5" font-family="sans" font-size="10.00">report</text>
</g>
<!-- 4&#45;&gt;7 -->
<g id="edge34" class="edge"><title>4&#45;&gt;7</title>
<path fill="none" stroke="grey" stroke-width="2" d="M1236.66,-152.134C1165.04,-138.131 1027.11,-111.16 961.041,-98.2426"/>
<polygon fill="grey" stroke="grey" stroke-width="2" points="961.561,-94.7782 951.076,-96.2941 960.218,-101.648 961.561,-94.7782"/>
</g>
<!-- 5 -->
<g id="node6" class="node"><title>5</title>
<path fill="none" stroke="#c6d856" stroke-width="2" d="M968,-756C968,-756 878,-756 878,-756 872,-756 866,-750 866,-744 866,-744 866,-732 866,-732 866,-726 872,-720 878,-720 878,-720 968,-720 968,-720 974,-720 980,-726 980,-732 980,-732 980,-744 980,-744 980,-750 974,-756 968,-756"/>
<text text-anchor="middle" x="923" y="-741" font-family="sans" font-size="10.00">sra_to_fastq</text>
<text text-anchor="middle" x="923" y="-730" font-family="sans" font-size="10.00">sample: SRR014380</text>
</g>
<!-- 5&#45;&gt;0 -->
<g id="edge5" class="edge"><title>5&#45;&gt;0</title>
<path fill="none" stroke="grey" stroke-width="2" d="M937.574,-719.911C945.314,-710.01 954.365,-696.968 960,-684 976.119,-646.904 979,-635.447 979,-595 979,-595 979,-595 979,-161 979,-120.553 983.727,-104.757 960,-72 946.605,-53.5066 924.619,-40.4429 905.614,-31.9127"/>
<polygon fill="grey" stroke="grey" stroke-width="2" points="906.866,-28.6421 896.293,-27.973 904.141,-35.0899 906.866,-28.6421"/>
</g>
<!-- 17 -->
<g id="node18" class="node"><title>17</title>
<path fill="none" stroke="#d87556" stroke-width="2" d="M939,-684C939,-684 861,-684 861,-684 855,-684 849,-678 849,-672 849,-672 849,-660 849,-660 849,-654 855,-648 861,-648 861,-648 939,-648 939,-648 945,-648 951,-654 951,-660 951,-660 951,-672 951,-672 951,-678 945,-684 939,-684"/>
<text text-anchor="middle" x="900" y="-663.5" font-family="sans" font-size="10.00">perfom_trimming</text>
</g>
<!-- 5&#45;&gt;17 -->
<g id="edge48" class="edge"><title>5&#45;&gt;17</title>
<path fill="none" stroke="grey" stroke-width="2" d="M917.315,-719.697C914.752,-711.898 911.667,-702.509 908.815,-693.829"/>
<polygon fill="grey" stroke="grey" stroke-width="2" points="912.067,-692.512 905.62,-684.104 905.416,-694.697 912.067,-692.512"/>
</g>
<!-- 6 -->
<g id="node7" class="node"><title>6</title>
<path fill="none" stroke="#d87556" stroke-width="2" d="M1429,-684C1429,-684 1351,-684 1351,-684 1345,-684 1339,-678 1339,-672 1339,-672 1339,-660 1339,-660 1339,-654 1345,-648 1351,-648 1351,-648 1429,-648 1429,-648 1435,-648 1441,-654 1441,-660 1441,-660 1441,-672 1441,-672 1441,-678 1435,-684 1429,-684"/>
<text text-anchor="middle" x="1390" y="-663.5" font-family="sans" font-size="10.00">perfom_trimming</text>
</g>
<!-- 6&#45;&gt;0 -->
<g id="edge6" class="edge"><title>6&#45;&gt;0</title>
<path fill="none" stroke="grey" stroke-width="2" d="M1441.1,-660.863C1519.38,-651.423 1660,-620.848 1660,-523 1660,-523 1660,-523 1660,-161 1660,-110.121 1633.08,-95.589 1588,-72 1527.34,-40.2574 1045.15,-24.0588 906.292,-20.0214"/>
<polygon fill="grey" stroke="grey" stroke-width="2" points="906.248,-16.5188 896.152,-19.7305 906.047,-23.5159 906.248,-16.5188"/>
</g>
<!-- 42 -->
<g id="node43" class="node"><title>42</title>
<path fill="none" stroke="#d8ac56" stroke-width="2" d="M1409,-612C1409,-612 1371,-612 1371,-612 1365,-612 1359,-606 1359,-600 1359,-600 1359,-588 1359,-588 1359,-582 1365,-576 1371,-576 1371,-576 1409,-576 1409,-576 1415,-576 1421,-582 1421,-588 1421,-588 1421,-600 1421,-600 1421,-606 1415,-612 1409,-612"/>
<text text-anchor="middle" x="1390" y="-591.5" font-family="sans" font-size="10.00">map_star</text>
</g>
<!-- 6&#45;&gt;42 -->
<g id="edge72" class="edge"><title>6&#45;&gt;42</title>
<path fill="none" stroke="grey" stroke-width="2" d="M1390,-647.697C1390,-639.983 1390,-630.712 1390,-622.112"/>
<polygon fill="grey" stroke="grey" stroke-width="2" points="1393.5,-622.104 1390,-612.104 1386.5,-622.104 1393.5,-622.104"/>
</g>
<!-- 7&#45;&gt;0 -->
<g id="edge7" class="edge"><title>7&#45;&gt;0</title>
<path fill="none" stroke="grey" stroke-width="2" d="M910.404,-71.6966C903.877,-63.3893 895.932,-53.2771 888.753,-44.1407"/>
<polygon fill="grey" stroke="grey" stroke-width="2" points="891.369,-41.8051 882.439,-36.1043 885.865,-46.1299 891.369,-41.8051"/>
</g>
<!-- 8 -->
<g id="node9" class="node"><title>8</title>
<path fill="none" stroke="#56a9d8" stroke-width="2" d="M567,-540C567,-540 477,-540 477,-540 471,-540 465,-534 465,-528 465,-528 465,-516 465,-516 465,-510 471,-504 477,-504 477,-504 567,-504 567,-504 573,-504 579,-510 579,-516 579,-516 579,-528 579,-528 579,-534 573,-540 567,-540"/>
<text text-anchor="middle" x="522" y="-525" font-family="sans" font-size="10.00">merge_bams</text>
<text text-anchor="middle" x="522" y="-514" font-family="sans" font-size="10.00">sample: SRX003187</text>
</g>
<!-- 8&#45;&gt;0 -->
<g id="edge8" class="edge"><title>8&#45;&gt;0</title>
<path fill="none" stroke="grey" stroke-width="2" d="M467.203,-503.983C413.93,-483.625 341,-443.902 341,-379 341,-379 341,-379 341,-161 341,-120.553 329.917,-99.0364 360,-72 394.968,-40.573 720.098,-24.8819 831.646,-20.3902"/>
<polygon fill="grey" stroke="grey" stroke-width="2" points="831.904,-23.8828 841.758,-19.9903 831.627,-16.8883 831.904,-23.8828"/>
</g>
<!-- 37 -->
<g id="node38" class="node"><title>37</title>
<path fill="none" stroke="#56d8a9" stroke-width="2" d="M585.5,-468C585.5,-468 484.5,-468 484.5,-468 478.5,-468 472.5,-462 472.5,-456 472.5,-456 472.5,-444 472.5,-444 472.5,-438 478.5,-432 484.5,-432 484.5,-432 585.5,-432 585.5,-432 591.5,-432 597.5,-438 597.5,-444 597.5,-444 597.5,-456 597.5,-456 597.5,-462 591.5,-468 585.5,-468"/>
<text text-anchor="middle" x="535" y="-447.5" font-family="sans" font-size="10.00">extract_uniq_mapping</text>
</g>
<!-- 8&#45;&gt;37 -->
<g id="edge67" class="edge"><title>8&#45;&gt;37</title>
<path fill="none" stroke="grey" stroke-width="2" d="M525.213,-503.697C526.646,-495.983 528.368,-486.712 529.965,-478.112"/>
<polygon fill="grey" stroke="grey" stroke-width="2" points="533.439,-478.575 531.823,-468.104 526.556,-477.297 533.439,-478.575"/>
</g>
<!-- 9 -->
<g id="node10" class="node"><title>9</title>
<path fill="none" stroke="#d87556" stroke-width="2" d="M1696,-684C1696,-684 1618,-684 1618,-684 1612,-684 1606,-678 1606,-672 1606,-672 1606,-660 1606,-660 1606,-654 1612,-648 1618,-648 1618,-648 1696,-648 1696,-648 1702,-648 1708,-654 1708,-660 1708,-660 1708,-672 1708,-672 1708,-678 1702,-684 1696,-684"/>
<text text-anchor="middle" x="1657" y="-663.5" font-family="sans" font-size="10.00">perfom_trimming</text>
</g>
<!-- 9&#45;&gt;0 -->
<g id="edge9" class="edge"><title>9&#45;&gt;0</title>
<path fill="none" stroke="grey" stroke-width="2" d="M1665.3,-647.971C1677.28,-621.77 1698,-569.701 1698,-523 1698,-523 1698,-523 1698,-161 1698,-111.22 1673.83,-95.601 1630,-72 1565.87,-37.4664 1049.97,-23.146 906.12,-19.801"/>
<polygon fill="grey" stroke="grey" stroke-width="2" points="906.11,-16.2999 896.033,-19.5703 905.95,-23.2981 906.11,-16.2999"/>
</g>
<!-- 43 -->
<g id="node44" class="node"><title>43</title>
<path fill="none" stroke="#d8ac56" stroke-width="2" d="M1555,-612C1555,-612 1517,-612 1517,-612 1511,-612 1505,-606 1505,-600 1505,-600 1505,-588 1505,-588 1505,-582 1511,-576 1517,-576 1517,-576 1555,-576 1555,-576 1561,-576 1567,-582 1567,-588 1567,-588 1567,-600 1567,-600 1567,-606 1561,-612 1555,-612"/>
<text text-anchor="middle" x="1536" y="-591.5" font-family="sans" font-size="10.00">map_star</text>
</g>
<!-- 9&#45;&gt;43 -->
<g id="edge73" class="edge"><title>9&#45;&gt;43</title>
<path fill="none" stroke="grey" stroke-width="2" d="M1627.4,-647.876C1611.43,-638.639 1591.54,-627.131 1574.39,-617.212"/>
<polygon fill="grey" stroke="grey" stroke-width="2" points="1576.12,-614.168 1565.71,-612.19 1572.62,-620.227 1576.12,-614.168"/>
</g>
<!-- 10 -->
<g id="node11" class="node"><title>10</title>
<path fill="none" stroke="#c6d856" stroke-width="2" d="M1124,-756C1124,-756 1034,-756 1034,-756 1028,-756 1022,-750 1022,-744 1022,-744 1022,-732 1022,-732 1022,-726 1028,-720 1034,-720 1034,-720 1124,-720 1124,-720 1130,-720 1136,-726 1136,-732 1136,-732 1136,-744 1136,-744 1136,-750 1130,-756 1124,-756"/>
<text text-anchor="middle" x="1079" y="-741" font-family="sans" font-size="10.00">sra_to_fastq</text>
<text text-anchor="middle" x="1079" y="-730" font-family="sans" font-size="10.00">sample: SRR028774</text>
</g>
<!-- 10&#45;&gt;0 -->
<g id="edge10" class="edge"><title>10&#45;&gt;0</title>
<path fill="none" stroke="grey" stroke-width="2" d="M1061.55,-719.831C1052.62,-710.105 1042.34,-697.256 1036,-684 1018.55,-647.509 1017,-635.447 1017,-595 1017,-595 1017,-595 1017,-161 1017,-118.656 1011.87,-102.975 983,-72 962.465,-49.9688 930.946,-36.2894 906.25,-28.3592"/>
<polygon fill="grey" stroke="grey" stroke-width="2" points="907.063,-24.9485 896.478,-25.402 905.036,-31.6484 907.063,-24.9485"/>
</g>
<!-- 23 -->
<g id="node24" class="node"><title>23</title>
<path fill="none" stroke="#d87556" stroke-width="2" d="M1135,-684C1135,-684 1057,-684 1057,-684 1051,-684 1045,-678 1045,-672 1045,-672 1045,-660 1045,-660 1045,-654 1051,-648 1057,-648 1057,-648 1135,-648 1135,-648 1141,-648 1147,-654 1147,-660 1147,-660 1147,-672 1147,-672 1147,-678 1141,-684 1135,-684"/>
<text text-anchor="middle" x="1096" y="-663.5" font-family="sans" font-size="10.00">perfom_trimming</text>
</g>
<!-- 10&#45;&gt;23 -->
<g id="edge55" class="edge"><title>10&#45;&gt;23</title>
<path fill="none" stroke="grey" stroke-width="2" d="M1083.2,-719.697C1085.1,-711.898 1087.38,-702.509 1089.48,-693.829"/>
<polygon fill="grey" stroke="grey" stroke-width="2" points="1092.89,-694.648 1091.85,-684.104 1086.08,-692.996 1092.89,-694.648"/>
</g>
<!-- 11 -->
<g id="node12" class="node"><title>11</title>
<path fill="none" stroke="#c6d856" stroke-width="2" d="M1285,-756C1285,-756 1195,-756 1195,-756 1189,-756 1183,-750 1183,-744 1183,-744 1183,-732 1183,-732 1183,-726 1189,-720 1195,-720 1195,-720 1285,-720 1285,-720 1291,-720 1297,-726 1297,-732 1297,-732 1297,-744 1297,-744 1297,-750 1291,-756 1285,-756"/>
<text text-anchor="middle" x="1240" y="-741" font-family="sans" font-size="10.00">sra_to_fastq</text>
<text text-anchor="middle" x="1240" y="-730" font-family="sans" font-size="10.00">sample: SRR014386</text>
</g>
<!-- 11&#45;&gt;0 -->
<g id="edge11" class="edge"><title>11&#45;&gt;0</title>
<path fill="none" stroke="grey" stroke-width="2" d="M1236.56,-719.592C1231.59,-692.896 1223,-640.188 1223,-595 1223,-595 1223,-595 1223,-449 1223,-414.913 1206.4,-173.882 1190,-144 1134.17,-42.2669 978.556,-22.9402 906.499,-19.5443"/>
<polygon fill="grey" stroke="grey" stroke-width="2" points="906.216,-16.0307 896.087,-19.1383 905.943,-23.0254 906.216,-16.0307"/>
</g>
<!-- 11&#45;&gt;6 -->
<g id="edge33" class="edge"><title>11&#45;&gt;6</title>
<path fill="none" stroke="grey" stroke-width="2" d="M1276.69,-719.876C1297.02,-710.392 1322.47,-698.513 1344.1,-688.419"/>
<polygon fill="grey" stroke="grey" stroke-width="2" points="1345.84,-691.469 1353.43,-684.068 1342.88,-685.126 1345.84,-691.469"/>
</g>
<!-- 12 -->
<g id="node13" class="node"><title>12</title>
<path fill="none" stroke="#8fd856" stroke-width="2" d="M501,-108C501,-108 381,-108 381,-108 375,-108 369,-102 369,-96 369,-96 369,-84 369,-84 369,-78 375,-72 381,-72 381,-72 501,-72 501,-72 507,-72 513,-78 513,-84 513,-84 513,-96 513,-96 513,-102 507,-108 501,-108"/>
<text text-anchor="middle" x="441" y="-87.5" font-family="sans" font-size="10.00">metagene_coverage_cds2</text>
</g>
<!-- 12&#45;&gt;0 -->
<g id="edge12" class="edge"><title>12&#45;&gt;0</title>
<path fill="none" stroke="grey" stroke-width="2" d="M513.22,-74.4986C517.88,-73.6327 522.503,-72.7925 527,-72 637.473,-52.5297 768.711,-33.2694 831.669,-24.2685"/>
<polygon fill="grey" stroke="grey" stroke-width="2" points="832.487,-27.6874 841.893,-22.8113 831.499,-20.7575 832.487,-27.6874"/>
</g>
<!-- 13 -->
<g id="node14" class="node"><title>13</title>
<path fill="none" stroke="#59d856" stroke-width="2" d="M671,-324C671,-324 455,-324 455,-324 449,-324 443,-318 443,-312 443,-312 443,-300 443,-300 443,-294 449,-288 455,-288 455,-288 671,-288 671,-288 677,-288 683,-294 683,-300 683,-300 683,-312 683,-312 683,-318 677,-324 671,-324"/>
<text text-anchor="middle" x="563" y="-303.5" font-family="sans" font-size="10.00">create_uniq_bigwig_from_uniq_bedgraph_raw</text>
</g>
<!-- 13&#45;&gt;0 -->
<g id="edge13" class="edge"><title>13&#45;&gt;0</title>
<path fill="none" stroke="grey" stroke-width="2" d="M556.094,-287.875C540.295,-245.59 506.805,-135.096 560,-72 594.359,-31.2464 757.026,-21.8289 831.549,-19.6533"/>
<polygon fill="grey" stroke="grey" stroke-width="2" points="831.975,-23.1434 841.879,-19.382 831.791,-16.1458 831.975,-23.1434"/>
</g>
<!-- 19 -->
<g id="node20" class="node"><title>19</title>
<path fill="none" stroke="#56d892" stroke-width="2" d="M677,-108C677,-108 581,-108 581,-108 575,-108 569,-102 569,-96 569,-96 569,-84 569,-84 569,-78 575,-72 581,-72 581,-72 677,-72 677,-72 683,-72 689,-78 689,-84 689,-84 689,-96 689,-96 689,-102 683,-108 677,-108"/>
<text text-anchor="middle" x="629" y="-87.5" font-family="sans" font-size="10.00">export_cds_coverage</text>
</g>
<!-- 13&#45;&gt;19 -->
<g id="edge50" class="edge"><title>13&#45;&gt;19</title>
<path fill="none" stroke="grey" stroke-width="2" d="M566.04,-287.723C571.57,-257.852 584.444,-194.867 603,-144 606.266,-135.046 610.591,-125.603 614.774,-117.208"/>
<polygon fill="grey" stroke="grey" stroke-width="2" points="617.916,-118.751 619.372,-108.257 611.689,-115.552 617.916,-118.751"/>
</g>
<!-- 45 -->
<g id="node46" class="node"><title>45</title>
<path fill="none" stroke="#56d8c9" stroke-width="2" d="M736.5,-252C736.5,-252 657.5,-252 657.5,-252 651.5,-252 645.5,-246 645.5,-240 645.5,-240 645.5,-228 645.5,-228 645.5,-222 651.5,-216 657.5,-216 657.5,-216 736.5,-216 736.5,-216 742.5,-216 748.5,-222 748.5,-228 748.5,-228 748.5,-240 748.5,-240 748.5,-246 742.5,-252 736.5,-252"/>
<text text-anchor="middle" x="697" y="-231.5" font-family="sans" font-size="10.00">export_metagene</text>
</g>
<!-- 13&#45;&gt;45 -->
<g id="edge75" class="edge"><title>13&#45;&gt;45</title>
<path fill="none" stroke="grey" stroke-width="2" d="M595.78,-287.876C613.625,-278.554 635.897,-266.919 655.003,-256.939"/>
<polygon fill="grey" stroke="grey" stroke-width="2" points="656.851,-259.922 664.094,-252.19 653.61,-253.718 656.851,-259.922"/>
</g>
<!-- 14 -->
<g id="node15" class="node"><title>14</title>
<path fill="none" stroke="#8fd856" stroke-width="2" d="M1515,-252C1515,-252 1395,-252 1395,-252 1389,-252 1383,-246 1383,-240 1383,-240 1383,-228 1383,-228 1383,-222 1389,-216 1395,-216 1395,-216 1515,-216 1515,-216 1521,-216 1527,-222 1527,-228 1527,-228 1527,-240 1527,-240 1527,-246 1521,-252 1515,-252"/>
<text text-anchor="middle" x="1455" y="-231.5" font-family="sans" font-size="10.00">metagene_coverage_cds2</text>
</g>
<!-- 14&#45;&gt;0 -->
<g id="edge14" class="edge"><title>14&#45;&gt;0</title>
<path fill="none" stroke="grey" stroke-width="2" d="M1451.41,-215.814C1443.32,-181.87 1420.25,-106.528 1369,-72 1293.49,-21.1225 1009.01,-17.97 906.285,-18.546"/>
<polygon fill="grey" stroke="grey" stroke-width="2" points="906.055,-15.0475 896.08,-18.6192 906.105,-22.0473 906.055,-15.0475"/>
</g>
<!-- 15 -->
<g id="node16" class="node"><title>15</title>
<path fill="none" stroke="#c6d856" stroke-width="2" d="M247,-756C247,-756 157,-756 157,-756 151,-756 145,-750 145,-744 145,-744 145,-732 145,-732 145,-726 151,-720 157,-720 157,-720 247,-720 247,-720 253,-720 259,-726 259,-732 259,-732 259,-744 259,-744 259,-750 253,-756 247,-756"/>
<text text-anchor="middle" x="202" y="-741" font-family="sans" font-size="10.00">sra_to_fastq</text>
<text text-anchor="middle" x="202" y="-730" font-family="sans" font-size="10.00">sample: SRR014378</text>
</g>
<!-- 15&#45;&gt;0 -->
<g id="edge15" class="edge"><title>15&#45;&gt;0</title>
<path fill="none" stroke="grey" stroke-width="2" d="M195.322,-719.811C185.679,-693.402 169,-641.064 169,-595 169,-595 169,-595 169,-161 169,-114.501 184.349,-96.2896 224,-72 275.895,-40.2099 701.941,-24.2672 831.661,-20.118"/>
<polygon fill="grey" stroke="grey" stroke-width="2" points="831.999,-23.6092 841.884,-19.7959 831.779,-16.6126 831.999,-23.6092"/>
</g>
<!-- 27 -->
<g id="node28" class="node"><title>27</title>
<path fill="none" stroke="#d87556" stroke-width="2" d="M287,-684C287,-684 209,-684 209,-684 203,-684 197,-678 197,-672 197,-672 197,-660 197,-660 197,-654 203,-648 209,-648 209,-648 287,-648 287,-648 293,-648 299,-654 299,-660 299,-660 299,-672 299,-672 299,-678 293,-684 287,-684"/>
<text text-anchor="middle" x="248" y="-663.5" font-family="sans" font-size="10.00">perfom_trimming</text>
</g>
<!-- 15&#45;&gt;27 -->
<g id="edge58" class="edge"><title>15&#45;&gt;27</title>
<path fill="none" stroke="grey" stroke-width="2" d="M213.371,-719.697C218.718,-711.559 225.204,-701.689 231.111,-692.701"/>
<polygon fill="grey" stroke="grey" stroke-width="2" points="234.193,-694.384 236.76,-684.104 228.343,-690.539 234.193,-694.384"/>
</g>
<!-- 16 -->
<g id="node17" class="node"><title>16</title>
<path fill="none" stroke="#d85656" stroke-width="2" d="M839,-180C839,-180 765,-180 765,-180 759,-180 753,-174 753,-168 753,-168 753,-156 753,-156 753,-150 759,-144 765,-144 765,-144 839,-144 839,-144 845,-144 851,-150 851,-156 851,-156 851,-168 851,-168 851,-174 845,-180 839,-180"/>
<text text-anchor="middle" x="802" y="-159.5" font-family="sans" font-size="10.00">plot_read_length</text>
</g>
<!-- 16&#45;&gt;0 -->
<g id="edge16" class="edge"><title>16&#45;&gt;0</title>
<path fill="none" stroke="grey" stroke-width="2" d="M801.888,-143.989C802.421,-125.348 805.258,-95.0342 817,-72 822.479,-61.2521 830.901,-51.2795 839.383,-42.9516"/>
<polygon fill="grey" stroke="grey" stroke-width="2" points="841.836,-45.4496 846.779,-36.0784 837.071,-40.3218 841.836,-45.4496"/>
</g>
<!-- 16&#45;&gt;7 -->
<g id="edge36" class="edge"><title>16&#45;&gt;7</title>
<path fill="none" stroke="grey" stroke-width="2" d="M831.845,-143.876C848.785,-134.156 870.107,-121.922 887.974,-111.671"/>
<polygon fill="grey" stroke="grey" stroke-width="2" points="890.029,-114.527 896.961,-106.514 886.545,-108.455 890.029,-114.527"/>
</g>
<!-- 17&#45;&gt;0 -->
<g id="edge17" class="edge"><title>17&#45;&gt;0</title>
<path fill="none" stroke="grey" stroke-width="2" d="M903.44,-647.592C908.408,-620.896 917,-568.188 917,-523 917,-523 917,-523 917,-233 917,-175.969 900.398,-163.667 888,-108 883.392,-87.3108 878.396,-63.8642 874.684,-46.2319"/>
<polygon fill="grey" stroke="grey" stroke-width="2" points="878.033,-45.1492 872.553,-36.0814 871.182,-46.5871 878.033,-45.1492"/>
</g>
<!-- 36 -->
<g id="node37" class="node"><title>36</title>
<path fill="none" stroke="#d8ac56" stroke-width="2" d="M701,-612C701,-612 663,-612 663,-612 657,-612 651,-606 651,-600 651,-600 651,-588 651,-588 651,-582 657,-576 663,-576 663,-576 701,-576 701,-576 707,-576 713,-582 713,-588 713,-588 713,-600 713,-600 713,-606 707,-612 701,-612"/>
<text text-anchor="middle" x="682" y="-591.5" font-family="sans" font-size="10.00">map_star</text>
</g>
<!-- 17&#45;&gt;36 -->
<g id="edge66" class="edge"><title>17&#45;&gt;36</title>
<path fill="none" stroke="grey" stroke-width="2" d="M848.889,-648.588C810.468,-636.251 758.528,-619.573 722.853,-608.118"/>
<polygon fill="grey" stroke="grey" stroke-width="2" points="723.838,-604.758 713.247,-605.033 721.698,-611.423 723.838,-604.758"/>
</g>
<!-- 18&#45;&gt;0 -->
<g id="edge18" class="edge"><title>18&#45;&gt;0</title>
<path fill="none" stroke="grey" stroke-width="2" d="M365.355,-647.891C349.578,-639.312 332.754,-627.415 322,-612 298.858,-578.828 303,-563.447 303,-523 303,-523 303,-523 303,-161 303,-118.813 302.606,-97.7795 336,-72 375.126,-41.796 716.904,-25.2046 831.631,-20.4484"/>
<polygon fill="grey" stroke="grey" stroke-width="2" points="831.847,-23.9426 841.696,-20.0375 831.561,-16.9484 831.847,-23.9426"/>
</g>
<!-- 34 -->
<g id="node35" class="node"><title>34</title>
<path fill="none" stroke="#d8ac56" stroke-width="2" d="M541,-612C541,-612 503,-612 503,-612 497,-612 491,-606 491,-600 491,-600 491,-588 491,-588 491,-582 497,-576 503,-576 503,-576 541,-576 541,-576 547,-576 553,-582 553,-588 553,-588 553,-600 553,-600 553,-606 547,-612 541,-612"/>
<text text-anchor="middle" x="522" y="-591.5" font-family="sans" font-size="10.00">map_star</text>
</g>
<!-- 18&#45;&gt;34 -->
<g id="edge64" class="edge"><title>18&#45;&gt;34</title>
<path fill="none" stroke="grey" stroke-width="2" d="M434.377,-647.876C449.544,-638.724 468.405,-627.342 484.739,-617.485"/>
<polygon fill="grey" stroke="grey" stroke-width="2" points="486.761,-620.353 493.514,-612.19 483.144,-614.36 486.761,-620.353"/>
</g>
<!-- 19&#45;&gt;0 -->
<g id="edge19" class="edge"><title>19&#45;&gt;0</title>
<path fill="none" stroke="grey" stroke-width="2" d="M687.404,-71.9656C732.492,-58.8147 793.499,-41.0211 832.055,-29.7757"/>
<polygon fill="grey" stroke="grey" stroke-width="2" points="833.206,-33.086 841.826,-26.9259 831.245,-26.366 833.206,-33.086"/>
</g>
<!-- 20 -->
<g id="node21" class="node"><title>20</title>
<path fill="none" stroke="#56a9d8" stroke-width="2" d="M1435,-540C1435,-540 1345,-540 1345,-540 1339,-540 1333,-534 1333,-528 1333,-528 1333,-516 1333,-516 1333,-510 1339,-504 1345,-504 1345,-504 1435,-504 1435,-504 1441,-504 1447,-510 1447,-516 1447,-516 1447,-528 1447,-528 1447,-534 1441,-540 1435,-540"/>
<text text-anchor="middle" x="1390" y="-525" font-family="sans" font-size="10.00">merge_bams</text>
<text text-anchor="middle" x="1390" y="-514" font-family="sans" font-size="10.00">sample: SRX003191</text>
</g>
<!-- 20&#45;&gt;0 -->
<g id="edge20" class="edge"><title>20&#45;&gt;0</title>
<path fill="none" stroke="grey" stroke-width="2" d="M1370.25,-503.941C1360.74,-494.433 1350.27,-481.752 1345,-468 1293.46,-333.478 1397.23,-274.395 1336,-144 1315.39,-100.1 1298.11,-92.1597 1254,-72 1192.36,-43.8273 990.346,-27.2314 906.253,-21.393"/>
<polygon fill="grey" stroke="grey" stroke-width="2" points="906.345,-17.8913 896.13,-20.7029 905.869,-24.8751 906.345,-17.8913"/>
</g>
<!-- 39 -->
<g id="node40" class="node"><title>39</title>
<path fill="none" stroke="#56d8a9" stroke-width="2" d="M1467.5,-468C1467.5,-468 1366.5,-468 1366.5,-468 1360.5,-468 1354.5,-462 1354.5,-456 1354.5,-456 1354.5,-444 1354.5,-444 1354.5,-438 1360.5,-432 1366.5,-432 1366.5,-432 1467.5,-432 1467.5,-432 1473.5,-432 1479.5,-438 1479.5,-444 1479.5,-444 1479.5,-456 1479.5,-456 1479.5,-462 1473.5,-468 1467.5,-468"/>
<text text-anchor="middle" x="1417" y="-447.5" font-family="sans" font-size="10.00">extract_uniq_mapping</text>
</g>
<!-- 20&#45;&gt;39 -->
<g id="edge69" class="edge"><title>20&#45;&gt;39</title>
<path fill="none" stroke="grey" stroke-width="2" d="M1396.67,-503.697C1399.71,-495.813 1403.38,-486.304 1406.76,-477.546"/>
<polygon fill="grey" stroke="grey" stroke-width="2" points="1410.07,-478.694 1410.4,-468.104 1403.54,-476.175 1410.07,-478.694"/>
</g>
<!-- 21 -->
<g id="node22" class="node"><title>21</title>
<path fill="none" stroke="#d87556" stroke-width="2" d="M129,-684C129,-684 51,-684 51,-684 45,-684 39,-678 39,-672 39,-672 39,-660 39,-660 39,-654 45,-648 51,-648 51,-648 129,-648 129,-648 135,-648 141,-654 141,-660 141,-660 141,-672 141,-672 141,-678 135,-684 129,-684"/>
<text text-anchor="middle" x="90" y="-663.5" font-family="sans" font-size="10.00">perfom_trimming</text>
</g>
<!-- 21&#45;&gt;0 -->
<g id="edge21" class="edge"><title>21&#45;&gt;0</title>
<path fill="none" stroke="grey" stroke-width="2" d="M94.2497,-647.634C100.386,-620.993 111,-568.356 111,-523 111,-523 111,-523 111,-161 111,-116.874 118.405,-96.655 155,-72 211.388,-34.0099 692.957,-22.2431 831.723,-19.6256"/>
<polygon fill="grey" stroke="grey" stroke-width="2" points="831.923,-23.1226 841.857,-19.4393 831.795,-16.1238 831.923,-23.1226"/>
</g>
<!-- 32 -->
<g id="node33" class="node"><title>32</title>
<path fill="none" stroke="#d8ac56" stroke-width="2" d="M381,-612C381,-612 343,-612 343,-612 337,-612 331,-606 331,-600 331,-600 331,-588 331,-588 331,-582 337,-576 343,-576 343,-576 381,-576 381,-576 387,-576 393,-582 393,-588 393,-588 393,-600 393,-600 393,-606 387,-612 381,-612"/>
<text text-anchor="middle" x="362" y="-591.5" font-family="sans" font-size="10.00">map_star</text>
</g>
<!-- 21&#45;&gt;32 -->
<g id="edge62" class="edge"><title>21&#45;&gt;32</title>
<path fill="none" stroke="grey" stroke-width="2" d="M141.161,-651.834C193.314,-638.412 273.179,-617.858 321.223,-605.494"/>
<polygon fill="grey" stroke="grey" stroke-width="2" points="322.158,-608.868 330.97,-602.986 320.413,-602.089 322.158,-608.868"/>
</g>
<!-- 22 -->
<g id="node23" class="node"><title>22</title>
<path fill="none" stroke="#c6d856" stroke-width="2" d="M1741,-756C1741,-756 1651,-756 1651,-756 1645,-756 1639,-750 1639,-744 1639,-744 1639,-732 1639,-732 1639,-726 1645,-720 1651,-720 1651,-720 1741,-720 1741,-720 1747,-720 1753,-726 1753,-732 1753,-732 1753,-744 1753,-744 1753,-750 1747,-756 1741,-756"/>
<text text-anchor="middle" x="1696" y="-741" font-family="sans" font-size="10.00">sra_to_fastq</text>
<text text-anchor="middle" x="1696" y="-730" font-family="sans" font-size="10.00">sample: SRR014387</text>
</g>
<!-- 22&#45;&gt;0 -->
<g id="edge22" class="edge"><title>22&#45;&gt;0</title>
<path fill="none" stroke="grey" stroke-width="2" d="M1704.09,-719.949C1715.78,-693.72 1736,-641.614 1736,-595 1736,-595 1736,-595 1736,-161 1736,-111.755 1713.23,-95.5831 1670,-72 1602.42,-35.1342 1054.83,-22.4247 906.139,-19.6354"/>
<polygon fill="grey" stroke="grey" stroke-width="2" points="906.197,-16.1359 896.135,-19.4515 906.068,-23.1348 906.197,-16.1359"/>
</g>
<!-- 22&#45;&gt;9 -->
<g id="edge43" class="edge"><title>22&#45;&gt;9</title>
<path fill="none" stroke="grey" stroke-width="2" d="M1686.36,-719.697C1681.87,-711.644 1676.44,-701.894 1671.48,-692.982"/>
<polygon fill="grey" stroke="grey" stroke-width="2" points="1674.45,-691.137 1666.53,-684.104 1668.34,-694.544 1674.45,-691.137"/>
</g>
<!-- 23&#45;&gt;0 -->
<g id="edge23" class="edge"><title>23&#45;&gt;0</title>
<path fill="none" stroke="grey" stroke-width="2" d="M1087.7,-647.971C1075.72,-621.77 1055,-569.701 1055,-523 1055,-523 1055,-523 1055,-161 1055,-120.031 1059.19,-101.724 1031,-72 998.378,-37.6084 943.151,-25.505 906.382,-21.2626"/>
<polygon fill="grey" stroke="grey" stroke-width="2" points="906.373,-17.7441 896.072,-20.2222 905.67,-24.7087 906.373,-17.7441"/>
</g>
<!-- 41 -->
<g id="node42" class="node"><title>41</title>
<path fill="none" stroke="#d8ac56" stroke-width="2" d="M1315,-612C1315,-612 1277,-612 1277,-612 1271,-612 1265,-606 1265,-600 1265,-600 1265,-588 1265,-588 1265,-582 1271,-576 1277,-576 1277,-576 1315,-576 1315,-576 1321,-576 1327,-582 1327,-588 1327,-588 1327,-600 1327,-600 1327,-606 1321,-612 1315,-612"/>
<text text-anchor="middle" x="1296" y="-591.5" font-family="sans" font-size="10.00">map_star</text>
</g>
<!-- 23&#45;&gt;41 -->
<g id="edge71" class="edge"><title>23&#45;&gt;41</title>
<path fill="none" stroke="grey" stroke-width="2" d="M1144.67,-647.966C1178.62,-636.083 1223.4,-620.41 1255.42,-609.202"/>
<polygon fill="grey" stroke="grey" stroke-width="2" points="1256.64,-612.483 1264.93,-605.876 1254.33,-605.876 1256.64,-612.483"/>
</g>
<!-- 24 -->
<g id="node25" class="node"><title>24</title>
<path fill="none" stroke="#c6d856" stroke-width="2" d="M102,-756C102,-756 12,-756 12,-756 6,-756 0,-750 0,-744 0,-744 0,-732 0,-732 0,-726 6,-720 12,-720 12,-720 102,-720 102,-720 108,-720 114,-726 114,-732 114,-732 114,-744 114,-744 114,-750 108,-756 102,-756"/>
<text text-anchor="middle" x="57" y="-741" font-family="sans" font-size="10.00">sra_to_fastq</text>
<text text-anchor="middle" x="57" y="-730" font-family="sans" font-size="10.00">sample: SRR014379</text>
</g>
<!-- 24&#45;&gt;0 -->
<g id="edge24" class="edge"><title>24&#45;&gt;0</title>
<path fill="none" stroke="grey" stroke-width="2" d="M46.813,-719.844C41.1673,-709.708 34.4173,-696.458 30,-684 16.483,-645.879 11,-635.447 11,-595 11,-595 11,-595 11,-161 11,-99.485 59.9741,-95.0683 117,-72 248.862,-18.6587 698.942,-17.6898 831.794,-18.6123"/>
<polygon fill="grey" stroke="grey" stroke-width="2" points="831.85,-22.1127 841.877,-18.6904 831.904,-15.1129 831.85,-22.1127"/>
</g>
<!-- 24&#45;&gt;21 -->
<g id="edge54" class="edge"><title>24&#45;&gt;21</title>
<path fill="none" stroke="grey" stroke-width="2" d="M65.1573,-719.697C68.9138,-711.728 73.4531,-702.1 77.6183,-693.264"/>
<polygon fill="grey" stroke="grey" stroke-width="2" points="80.8381,-694.642 81.9365,-684.104 74.5064,-691.657 80.8381,-694.642"/>
</g>
<!-- 25&#45;&gt;0 -->
<g id="edge25" class="edge"><title>25&#45;&gt;0</title>
<path fill="none" stroke="grey" stroke-width="2" d="M1432.85,-75.4622C1426.17,-74.1847 1419.45,-72.9971 1413,-72 1223.53,-42.7338 994.293,-26.6509 906.069,-21.1709"/>
<polygon fill="grey" stroke="grey" stroke-width="2" points="906.216,-17.6735 896.021,-20.555 905.788,-24.6604 906.216,-17.6735"/>
</g>
<!-- 26 -->
<g id="node27" class="node"><title>26</title>
<path fill="none" stroke="#d85656" stroke-width="2" d="M1169,-180C1169,-180 1095,-180 1095,-180 1089,-180 1083,-174 1083,-168 1083,-168 1083,-156 1083,-156 1083,-150 1089,-144 1095,-144 1095,-144 1169,-144 1169,-144 1175,-144 1181,-150 1181,-156 1181,-156 1181,-168 1181,-168 1181,-174 1175,-180 1169,-180"/>
<text text-anchor="middle" x="1132" y="-159.5" font-family="sans" font-size="10.00">plot_read_length</text>
</g>
<!-- 26&#45;&gt;0 -->
<g id="edge26" class="edge"><title>26&#45;&gt;0</title>
<path fill="none" stroke="grey" stroke-width="2" d="M1124.4,-143.831C1114.54,-123.579 1095.43,-90.3551 1069,-72 1019.39,-37.5534 948.673,-25.4924 905.975,-21.271"/>
<polygon fill="grey" stroke="grey" stroke-width="2" points="906.284,-17.7848 896.012,-20.3786 905.66,-24.7569 906.284,-17.7848"/>
</g>
<!-- 26&#45;&gt;7 -->
<g id="edge37" class="edge"><title>26&#45;&gt;7</title>
<path fill="none" stroke="grey" stroke-width="2" d="M1082.97,-144.5C1045.48,-131.881 994.603,-114.761 960.606,-103.319"/>
<polygon fill="grey" stroke="grey" stroke-width="2" points="961.655,-99.9796 951.061,-100.107 959.422,-106.614 961.655,-99.9796"/>
</g>
<!-- 27&#45;&gt;0 -->
<g id="edge27" class="edge"><title>27&#45;&gt;0</title>
<path fill="none" stroke="grey" stroke-width="2" d="M243.75,-647.634C237.614,-620.993 227,-568.356 227,-523 227,-523 227,-523 227,-161 227,-120.031 219.573,-98.282 251,-72 295.593,-34.7078 704.636,-22.6188 831.595,-19.748"/>
<polygon fill="grey" stroke="grey" stroke-width="2" points="831.698,-23.2467 841.619,-19.5274 831.544,-16.2484 831.698,-23.2467"/>
</g>
<!-- 33 -->
<g id="node34" class="node"><title>33</title>
<path fill="none" stroke="#d8ac56" stroke-width="2" d="M461,-612C461,-612 423,-612 423,-612 417,-612 411,-606 411,-600 411,-600 411,-588 411,-588 411,-582 417,-576 423,-576 423,-576 461,-576 461,-576 467,-576 473,-582 473,-588 473,-588 473,-600 473,-600 473,-606 467,-612 461,-612"/>
<text text-anchor="middle" x="442" y="-591.5" font-family="sans" font-size="10.00">map_star</text>
</g>
<!-- 27&#45;&gt;33 -->
<g id="edge63" class="edge"><title>27&#45;&gt;33</title>
<path fill="none" stroke="grey" stroke-width="2" d="M299.308,-648.348C327.178,-639.072 362.389,-626.982 401.232,-612.185"/>
<polygon fill="grey" stroke="grey" stroke-width="2" points="402.56,-615.424 410.642,-608.574 400.052,-608.889 402.56,-615.424"/>
</g>
<!-- 28 -->
<g id="node29" class="node"><title>28</title>
<path fill="none" stroke="#c6d856" stroke-width="2" d="M811,-756C811,-756 721,-756 721,-756 715,-756 709,-750 709,-744 709,-744 709,-732 709,-732 709,-726 715,-720 721,-720 721,-720 811,-720 811,-720 817,-720 823,-726 823,-732 823,-732 823,-744 823,-744 823,-750 817,-756 811,-756"/>
<text text-anchor="middle" x="766" y="-741" font-family="sans" font-size="10.00">sra_to_fastq</text>
<text text-anchor="middle" x="766" y="-730" font-family="sans" font-size="10.00">sample: SRR014381</text>
</g>
<!-- 28&#45;&gt;0 -->
<g id="edge28" class="edge"><title>28&#45;&gt;0</title>
<path fill="none" stroke="grey" stroke-width="2" d="M780.006,-719.893C787.396,-709.986 795.954,-696.945 801,-684 891.818,-451.016 877.93,-139.129 871.256,-46.2095"/>
<polygon fill="grey" stroke="grey" stroke-width="2" points="874.745,-45.9297 870.504,-36.2207 867.764,-46.4552 874.745,-45.9297"/>
</g>
<!-- 28&#45;&gt;2 -->
<g id="edge31" class="edge"><title>28&#45;&gt;2</title>
<path fill="none" stroke="grey" stroke-width="2" d="M759.82,-719.697C757.005,-711.813 753.609,-702.304 750.481,-693.546"/>
<polygon fill="grey" stroke="grey" stroke-width="2" points="753.768,-692.345 747.109,-684.104 747.176,-694.699 753.768,-692.345"/>
</g>
<!-- 29 -->
<g id="node30" class="node"><title>29</title>
<path fill="none" stroke="#afd856" stroke-width="2" d="M723,-180C723,-180 657,-180 657,-180 651,-180 645,-174 645,-168 645,-168 645,-156 645,-156 645,-150 651,-144 657,-144 657,-144 723,-144 723,-144 729,-144 735,-150 735,-156 735,-156 735,-168 735,-168 735,-174 729,-180 723,-180"/>
<text text-anchor="middle" x="690" y="-159.5" font-family="sans" font-size="10.00">plot_metagene</text>
</g>
<!-- 29&#45;&gt;0 -->
<g id="edge29" class="edge"><title>29&#45;&gt;0</title>
<path fill="none" stroke="grey" stroke-width="2" d="M711.46,-143.924C733.996,-125.997 770.472,-96.9964 802,-72 814.157,-62.361 827.567,-51.7498 839.175,-42.5703"/>
<polygon fill="grey" stroke="grey" stroke-width="2" points="841.591,-45.1213 847.265,-36.1736 837.25,-39.6303 841.591,-45.1213"/>
</g>
<!-- 29&#45;&gt;7 -->
<g id="edge35" class="edge"><title>29&#45;&gt;7</title>
<path fill="none" stroke="grey" stroke-width="2" d="M735.062,-146.745C738.085,-145.81 741.085,-144.888 744,-144 793.421,-128.946 850.689,-112.204 887.115,-101.643"/>
<polygon fill="grey" stroke="grey" stroke-width="2" points="888.181,-104.978 896.813,-98.8341 886.234,-98.254 888.181,-104.978"/>
</g>
<!-- 30 -->
<g id="node31" class="node"><title>30</title>
<path fill="none" stroke="#56c9d8" stroke-width="2" d="M1575,-396C1575,-396 1419,-396 1419,-396 1413,-396 1407,-390 1407,-384 1407,-384 1407,-372 1407,-372 1407,-366 1413,-360 1419,-360 1419,-360 1575,-360 1575,-360 1581,-360 1587,-366 1587,-372 1587,-372 1587,-384 1587,-384 1587,-390 1581,-396 1575,-396"/>
<text text-anchor="middle" x="1497" y="-375.5" font-family="sans" font-size="10.00">create_uniq_bedgraph_from_bam</text>
</g>
<!-- 30&#45;&gt;1 -->
<g id="edge30" class="edge"><title>30&#45;&gt;1</title>
<path fill="none" stroke="grey" stroke-width="2" d="M1500.71,-359.697C1502.36,-351.983 1504.35,-342.712 1506.19,-334.112"/>
<polygon fill="grey" stroke="grey" stroke-width="2" points="1509.66,-334.616 1508.33,-324.104 1502.82,-333.149 1509.66,-334.616"/>
</g>
<!-- 31&#45;&gt;4 -->
<g id="edge32" class="edge"><title>31&#45;&gt;4</title>
<path fill="none" stroke="grey" stroke-width="2" d="M1276.73,-215.697C1277.5,-207.983 1278.43,-198.712 1279.29,-190.112"/>
<polygon fill="grey" stroke="grey" stroke-width="2" points="1282.78,-190.403 1280.29,-180.104 1275.81,-189.706 1282.78,-190.403"/>
</g>
<!-- 32&#45;&gt;8 -->
<g id="edge38" class="edge"><title>32&#45;&gt;8</title>
<path fill="none" stroke="grey" stroke-width="2" d="M393.229,-579.337C416.07,-569.344 447.489,-555.599 473.573,-544.187"/>
<polygon fill="grey" stroke="grey" stroke-width="2" points="475.157,-547.314 482.916,-540.099 472.351,-540.901 475.157,-547.314"/>
</g>
<!-- 33&#45;&gt;8 -->
<g id="edge39" class="edge"><title>33&#45;&gt;8</title>
<path fill="none" stroke="grey" stroke-width="2" d="M461.775,-575.697C471.754,-566.965 484.011,-556.24 494.857,-546.75"/>
<polygon fill="grey" stroke="grey" stroke-width="2" points="497.231,-549.323 502.452,-540.104 492.622,-544.055 497.231,-549.323"/>
</g>
<!-- 34&#45;&gt;8 -->
<g id="edge40" class="edge"><title>34&#45;&gt;8</title>
<path fill="none" stroke="grey" stroke-width="2" d="M522,-575.697C522,-567.983 522,-558.712 522,-550.112"/>
<polygon fill="grey" stroke="grey" stroke-width="2" points="525.5,-550.104 522,-540.104 518.5,-550.104 525.5,-550.104"/>
</g>
<!-- 35&#45;&gt;8 -->
<g id="edge41" class="edge"><title>35&#45;&gt;8</title>
<path fill="none" stroke="grey" stroke-width="2" d="M582.225,-575.697C572.246,-566.965 559.989,-556.24 549.143,-546.75"/>
<polygon fill="grey" stroke="grey" stroke-width="2" points="551.378,-544.055 541.548,-540.104 546.769,-549.323 551.378,-544.055"/>
</g>
<!-- 36&#45;&gt;8 -->
<g id="edge42" class="edge"><title>36&#45;&gt;8</title>
<path fill="none" stroke="grey" stroke-width="2" d="M650.771,-579.337C627.93,-569.344 596.511,-555.599 570.427,-544.187"/>
<polygon fill="grey" stroke="grey" stroke-width="2" points="571.649,-540.901 561.084,-540.099 568.843,-547.314 571.649,-540.901"/>
</g>
<!-- 37&#45;&gt;12 -->
<g id="edge44" class="edge"><title>37&#45;&gt;12</title>
<path fill="none" stroke="grey" stroke-width="2" d="M495.872,-431.917C479.556,-423.164 461.529,-411.128 449,-396 421.991,-363.389 415,-349.344 415,-307 415,-307 415,-307 415,-233 415,-192.553 425.333,-146.67 432.97,-118.279"/>
<polygon fill="grey" stroke="grey" stroke-width="2" points="436.438,-118.873 435.739,-108.302 429.692,-117.002 436.438,-118.873"/>
</g>
<!-- 38 -->
<g id="node39" class="node"><title>38</title>
<path fill="none" stroke="#56c9d8" stroke-width="2" d="M626,-396C626,-396 470,-396 470,-396 464,-396 458,-390 458,-384 458,-384 458,-372 458,-372 458,-366 464,-360 470,-360 470,-360 626,-360 626,-360 632,-360 638,-366 638,-372 638,-372 638,-384 638,-384 638,-390 632,-396 626,-396"/>
<text text-anchor="middle" x="548" y="-375.5" font-family="sans" font-size="10.00">create_uniq_bedgraph_from_bam</text>
</g>
<!-- 37&#45;&gt;38 -->
<g id="edge68" class="edge"><title>37&#45;&gt;38</title>
<path fill="none" stroke="grey" stroke-width="2" d="M538.213,-431.697C539.646,-423.983 541.368,-414.712 542.965,-406.112"/>
<polygon fill="grey" stroke="grey" stroke-width="2" points="546.439,-406.575 544.823,-396.104 539.556,-405.297 546.439,-406.575"/>
</g>
<!-- 40 -->
<g id="node41" class="node"><title>40</title>
<path fill="none" stroke="#5692d8" stroke-width="2" d="M838.5,-324C838.5,-324 751.5,-324 751.5,-324 745.5,-324 739.5,-318 739.5,-312 739.5,-312 739.5,-300 739.5,-300 739.5,-294 745.5,-288 751.5,-288 751.5,-288 838.5,-288 838.5,-288 844.5,-288 850.5,-294 850.5,-300 850.5,-300 850.5,-312 850.5,-312 850.5,-318 844.5,-324 838.5,-324"/>
<text text-anchor="middle" x="795" y="-303.5" font-family="sans" font-size="10.00">export_read_length</text>
</g>
<!-- 37&#45;&gt;40 -->
<g id="edge70" class="edge"><title>37&#45;&gt;40</title>
<path fill="none" stroke="grey" stroke-width="2" d="M573.569,-431.897C595.383,-421.939 623.012,-408.848 647,-396 686.402,-374.897 730.103,-348.191 759.734,-329.564"/>
<polygon fill="grey" stroke="grey" stroke-width="2" points="761.869,-332.355 768.457,-324.057 758.133,-326.435 761.869,-332.355"/>
</g>
<!-- 38&#45;&gt;13 -->
<g id="edge45" class="edge"><title>38&#45;&gt;13</title>
<path fill="none" stroke="grey" stroke-width="2" d="M551.708,-359.697C553.361,-351.983 555.347,-342.712 557.19,-334.112"/>
<polygon fill="grey" stroke="grey" stroke-width="2" points="560.662,-334.616 559.335,-324.104 553.817,-333.149 560.662,-334.616"/>
</g>
<!-- 39&#45;&gt;14 -->
<g id="edge46" class="edge"><title>39&#45;&gt;14</title>
<path fill="none" stroke="grey" stroke-width="2" d="M1406.23,-431.59C1388.78,-400.976 1358.64,-336.185 1383,-288 1389.14,-275.858 1399.52,-265.817 1410.51,-257.862"/>
<polygon fill="grey" stroke="grey" stroke-width="2" points="1412.62,-260.662 1418.97,-252.185 1408.72,-254.848 1412.62,-260.662"/>
</g>
<!-- 39&#45;&gt;30 -->
<g id="edge60" class="edge"><title>39&#45;&gt;30</title>
<path fill="none" stroke="grey" stroke-width="2" d="M1436.78,-431.697C1446.75,-422.965 1459.01,-412.24 1469.86,-402.75"/>
<polygon fill="grey" stroke="grey" stroke-width="2" points="1472.23,-405.323 1477.45,-396.104 1467.62,-400.055 1472.23,-405.323"/>
</g>
<!-- 44 -->
<g id="node45" class="node"><title>44</title>
<path fill="none" stroke="#5692d8" stroke-width="2" d="M1182.5,-396C1182.5,-396 1095.5,-396 1095.5,-396 1089.5,-396 1083.5,-390 1083.5,-384 1083.5,-384 1083.5,-372 1083.5,-372 1083.5,-366 1089.5,-360 1095.5,-360 1095.5,-360 1182.5,-360 1182.5,-360 1188.5,-360 1194.5,-366 1194.5,-372 1194.5,-372 1194.5,-384 1194.5,-384 1194.5,-390 1188.5,-396 1182.5,-396"/>
<text text-anchor="middle" x="1139" y="-375.5" font-family="sans" font-size="10.00">export_read_length</text>
</g>
<!-- 39&#45;&gt;44 -->
<g id="edge74" class="edge"><title>39&#45;&gt;44</title>
<path fill="none" stroke="grey" stroke-width="2" d="M1354.26,-433.203C1309.66,-421.971 1249.87,-406.916 1204.62,-395.523"/>
<polygon fill="grey" stroke="grey" stroke-width="2" points="1205.46,-392.125 1194.91,-393.078 1203.75,-398.913 1205.46,-392.125"/>
</g>
<!-- 40&#45;&gt;16 -->
<g id="edge47" class="edge"><title>40&#45;&gt;16</title>
<path fill="none" stroke="grey" stroke-width="2" d="M795.844,-287.871C797.037,-263.67 799.229,-219.211 800.65,-190.393"/>
<polygon fill="grey" stroke="grey" stroke-width="2" points="804.156,-190.349 801.153,-180.189 797.164,-190.005 804.156,-190.349"/>
</g>
<!-- 41&#45;&gt;20 -->
<g id="edge51" class="edge"><title>41&#45;&gt;20</title>
<path fill="none" stroke="grey" stroke-width="2" d="M1319.24,-575.697C1331.19,-566.796 1345.92,-555.823 1358.85,-546.199"/>
<polygon fill="grey" stroke="grey" stroke-width="2" points="1361.1,-548.884 1367.03,-540.104 1356.92,-543.27 1361.1,-548.884"/>
</g>
<!-- 42&#45;&gt;20 -->
<g id="edge52" class="edge"><title>42&#45;&gt;20</title>
<path fill="none" stroke="grey" stroke-width="2" d="M1390,-575.697C1390,-567.983 1390,-558.712 1390,-550.112"/>
<polygon fill="grey" stroke="grey" stroke-width="2" points="1393.5,-550.104 1390,-540.104 1386.5,-550.104 1393.5,-550.104"/>
</g>
<!-- 43&#45;&gt;20 -->
<g id="edge53" class="edge"><title>43&#45;&gt;20</title>
<path fill="none" stroke="grey" stroke-width="2" d="M1504.68,-577.983C1484.28,-568.203 1457.35,-555.292 1434.72,-544.439"/>
<polygon fill="grey" stroke="grey" stroke-width="2" points="1436.16,-541.251 1425.63,-540.084 1433.14,-547.563 1436.16,-541.251"/>
</g>
<!-- 44&#45;&gt;26 -->
<g id="edge57" class="edge"><title>44&#45;&gt;26</title>
<path fill="none" stroke="grey" stroke-width="2" d="M1138.44,-359.849C1137.23,-322.832 1134.36,-235.181 1132.9,-190.386"/>
<polygon fill="grey" stroke="grey" stroke-width="2" points="1136.39,-190.113 1132.56,-180.232 1129.39,-190.342 1136.39,-190.113"/>
</g>
<!-- 45&#45;&gt;29 -->
<g id="edge59" class="edge"><title>45&#45;&gt;29</title>
<path fill="none" stroke="grey" stroke-width="2" d="M695.27,-215.697C694.498,-207.983 693.571,-198.712 692.711,-190.112"/>
<polygon fill="grey" stroke="grey" stroke-width="2" points="696.188,-189.706 691.71,-180.104 689.223,-190.403 696.188,-189.706"/>
</g>
</g>
</svg>
